<svg width="1440" height="1024" viewBox="0 0 1440 1024" fill="none" xmlns="http://www.w3.org/2000/svg">
  <defs>
    <linearGradient id="bg" x1="0" y1="0" x2="1440" y2="1024" gradientUnits="userSpaceOnUse">
      <stop stop-color="#F4F7FB"/>
      <stop offset="1" stop-color="#E8EEF5"/>
    </linearGradient>
    <filter id="shadowLg" x="0" y="0" width="2000" height="1400" filterUnits="userSpaceOnUse" color-interpolation-filters="sRGB">
      <feDropShadow dx="0" dy="18" stdDeviation="22" flood-color="#1F2937" flood-opacity="0.12"/>
    </filter>
    <filter id="shadowMd" x="0" y="0" width="2000" height="1400" filterUnits="userSpaceOnUse" color-interpolation-filters="sRGB">
      <feDropShadow dx="0" dy="10" stdDeviation="14" flood-color="#1F2937" flood-opacity="0.1"/>
    </filter>
    <filter id="shadowSm" x="0" y="0" width="2000" height="1400" filterUnits="userSpaceOnUse" color-interpolation-filters="sRGB">
      <feDropShadow dx="0" dy="4" stdDeviation="8" flood-color="#1F2937" flood-opacity="0.09"/>
    </filter>
    <style>
      .title { font: 700 32px "Segoe UI", Arial, sans-serif; fill: #162033; }
      .h2 { font: 700 22px "Segoe UI", Arial, sans-serif; fill: #162033; }
      .label { font: 700 12px "Segoe UI", Arial, sans-serif; fill: #667085; letter-spacing: 1.2px; text-transform: uppercase; }
      .body { font: 500 15px "Segoe UI", Arial, sans-serif; fill: #344054; }
      .muted { font: 500 13px "Segoe UI", Arial, sans-serif; fill: #667085; }
      .mono { font: 700 12px Consolas, monospace; fill: #344054; }
      .num { font: 700 28px "Segoe UI", Arial, sans-serif; fill: #101828; }
      .pill { font: 600 13px "Segoe UI", Arial, sans-serif; fill: #344054; }
      .btn { font: 700 13px "Segoe UI", Arial, sans-serif; fill: white; }
      .tableHead { font: 700 12px "Segoe UI", Arial, sans-serif; fill: #475467; letter-spacing: 0.4px; }
      .tableCell { font: 500 13px "Segoe UI", Arial, sans-serif; fill: #101828; }
      .tag { font: 700 11px "Segoe UI", Arial, sans-serif; }
    </style>
  </defs>

  <rect width="1440" height="1024" fill="url(#bg)"/>

  <rect x="48" y="32" width="116" height="34" rx="8" fill="#FFFFFF" stroke="#D0D5DD"/>
  <text x="88" y="54" text-anchor="middle" class="body">Back</text>

  <text x="48" y="116" class="title">HFAT Assessments</text>
  <rect x="49" y="130" width="88" height="26" rx="13" fill="#EEF2F6"/>
  <text x="93" y="147" text-anchor="middle" class="mono">HFAT-001</text>
  <text x="48" y="182" class="body">Assessment events across the selected organisation unit and all descendants.</text>
  <line x1="48" y1="212" x2="1392" y2="212" stroke="#D0D5DD"/>

  <g filter="url(#shadowLg)">
    <rect x="48" y="248" width="290" height="676" rx="20" fill="#FFFFFF"/>
  </g>
  <rect x="48" y="248" width="290" height="676" rx="20" fill="white" stroke="#D0D5DD"/>
  <rect x="48" y="248" width="290" height="64" rx="20" fill="#F8FAFC"/>
  <path d="M48 292H338" stroke="#D0D5DD"/>
  <text x="72" y="286" class="label">Organisation Unit</text>
  <rect x="72" y="336" width="242" height="48" rx="12" fill="#F9FAFB" stroke="#D0D5DD"/>
  <text x="92" y="365" class="body">National HQ</text>
  <rect x="88" y="404" width="210" height="44" rx="12" fill="#F2F4F7" stroke="#D0D5DD"/>
  <text x="108" y="431" class="body">Region North</text>
  <rect x="104" y="468" width="194" height="44" rx="12" fill="#EAF2FF" stroke="#98A2B3"/>
  <text x="124" y="495" class="body">District Alpha</text>
  <rect x="120" y="532" width="162" height="40" rx="10" fill="#F9FAFB" stroke="#D0D5DD"/>
  <text x="138" y="557" class="muted">Facility One</text>
  <rect x="120" y="588" width="162" height="40" rx="10" fill="#F9FAFB" stroke="#D0D5DD"/>
  <text x="138" y="613" class="muted">Facility Two</text>
  <rect x="104" y="652" width="194" height="44" rx="12" fill="#F2F4F7" stroke="#D0D5DD"/>
  <text x="124" y="679" class="body">District Beta</text>

  <g filter="url(#shadowMd)">
    <rect x="370" y="248" width="210" height="92" rx="18" fill="#FFFFFF"/>
  </g>
  <rect x="370" y="248" width="210" height="92" rx="18" fill="white" stroke="#D0D5DD"/>
  <text x="398" y="282" class="label">Completed</text>
  <text x="398" y="319" class="num">42</text>

  <g filter="url(#shadowMd)">
    <rect x="598" y="248" width="210" height="92" rx="18" fill="#FFFFFF"/>
  </g>
  <rect x="598" y="248" width="210" height="92" rx="18" fill="white" stroke="#D0D5DD"/>
  <text x="626" y="282" class="label">In Progress</text>
  <text x="626" y="319" class="num">7</text>

  <g filter="url(#shadowLg)">
    <rect x="370" y="364" width="1022" height="560" rx="22" fill="#FFFFFF"/>
  </g>
  <rect x="370" y="364" width="1022" height="560" rx="22" fill="white" stroke="#D0D5DD"/>

  <rect x="370" y="364" width="1022" height="84" rx="22" fill="#FFFFFF"/>
  <path d="M370 448H1392" stroke="#D0D5DD"/>

  <g filter="url(#shadowSm)">
    <rect x="396" y="388" width="238" height="36" rx="12" fill="#F2F4F7"/>
  </g>
  <rect x="396" y="388" width="74" height="36" rx="12" fill="#FFFFFF" stroke="#D0D5DD"/>
  <text x="433" y="411" text-anchor="middle" class="pill">All</text>
  <text x="523" y="411" text-anchor="middle" class="pill">Completed</text>
  <text x="595" y="411" text-anchor="middle" class="pill">Drafts</text>

  <g filter="url(#shadowSm)">
    <rect x="1214" y="384" width="152" height="42" rx="12" fill="#0B6BCB"/>
  </g>
  <text x="1290" y="410" text-anchor="middle" class="btn">New Assessment</text>

  <text x="396" y="472" class="muted">Showing assessments for the selected organisation unit and all descendants.</text>

  <rect x="396" y="500" width="970" height="44" rx="10" fill="#F8FAFC" stroke="#EAECF0"/>
  <text x="418" y="527" class="tableHead">STATUS</text>
  <text x="510" y="527" class="tableHead">EVENT DATE</text>
  <text x="640" y="527" class="tableHead">INCIDENT DATE</text>
  <text x="806" y="527" class="tableHead">ORGANISATION UNIT</text>
  <text x="1020" y="527" class="tableHead">CREATED BY</text>
  <text x="1148" y="527" class="tableHead">LAST UPDATED</text>
  <text x="1298" y="527" class="tableHead">ACTIONS</text>

  <rect x="396" y="552" width="970" height="58" fill="#FFF7ED"/>
  <line x1="396" y1="610" x2="1366" y2="610" stroke="#EAECF0"/>
  <rect x="418" y="569" width="52" height="24" rx="12" fill="#FFE2B7"/>
  <text x="444" y="585" text-anchor="middle" class="tag" fill="#9A3412">DRAFT</text>
  <text x="510" y="586" class="tableCell">26/03/2026</text>
  <text x="640" y="586" class="tableCell">24/03/2026</text>
  <text x="806" y="586" class="tableCell">Facility One</text>
  <text x="1020" y="586" class="tableCell">Amina Yusuf</text>
  <text x="1148" y="586" class="tableCell">26/03/2026, 09:12</text>
  <rect x="1264" y="564" width="80" height="32" rx="10" fill="#EFF8FF" stroke="#B2DDFF"/>
  <text x="1304" y="584" text-anchor="middle" class="pill">Continue</text>

  <rect x="396" y="610" width="970" height="58" fill="#FFFFFF"/>
  <line x1="396" y1="668" x2="1366" y2="668" stroke="#EAECF0"/>
  <rect x="418" y="627" width="78" height="24" rx="12" fill="#DCFCE7"/>
  <text x="457" y="643" text-anchor="middle" class="tag" fill="#166534">COMPLETED</text>
  <text x="510" y="644" class="tableCell">23/03/2026</text>
  <text x="640" y="644" class="tableCell">22/03/2026</text>
  <text x="806" y="644" class="tableCell">District Alpha</text>
  <text x="1020" y="644" class="tableCell">Ibrahim Bello</text>
  <text x="1148" y="644" class="tableCell">25/03/2026, 17:40</text>
  <rect x="1280" y="622" width="64" height="32" rx="10" fill="#F2F4F7" stroke="#D0D5DD"/>
  <text x="1312" y="642" text-anchor="middle" class="pill">View</text>

  <rect x="396" y="668" width="970" height="58" fill="#FFFFFF"/>
  <line x1="396" y1="726" x2="1366" y2="726" stroke="#EAECF0"/>
  <rect x="418" y="685" width="78" height="24" rx="12" fill="#DCFCE7"/>
  <text x="457" y="701" text-anchor="middle" class="tag" fill="#166534">COMPLETED</text>
  <text x="510" y="702" class="tableCell">20/03/2026</text>
  <text x="640" y="702" class="tableCell">19/03/2026</text>
  <text x="806" y="702" class="tableCell">Facility Two</text>
  <text x="1020" y="702" class="tableCell">Martha Odeh</text>
  <text x="1148" y="702" class="tableCell">21/03/2026, 11:04</text>
  <rect x="1280" y="680" width="64" height="32" rx="10" fill="#F2F4F7" stroke="#D0D5DD"/>
  <text x="1312" y="700" text-anchor="middle" class="pill">View</text>

  <rect x="396" y="726" width="970" height="58" fill="#FFFFFF"/>
  <line x1="396" y1="784" x2="1366" y2="784" stroke="#EAECF0"/>
  <rect x="418" y="743" width="52" height="24" rx="12" fill="#FFE2B7"/>
  <text x="444" y="759" text-anchor="middle" class="tag" fill="#9A3412">DRAFT</text>
  <text x="510" y="760" class="tableCell">18/03/2026</text>
  <text x="640" y="760" class="tableCell">17/03/2026</text>
  <text x="806" y="760" class="tableCell">District Beta</text>
  <text x="1020" y="760" class="tableCell">Amina Yusuf</text>
  <text x="1148" y="760" class="tableCell">18/03/2026, 15:21</text>
  <rect x="1264" y="738" width="80" height="32" rx="10" fill="#EFF8FF" stroke="#B2DDFF"/>
  <text x="1304" y="758" text-anchor="middle" class="pill">Continue</text>

  <rect x="396" y="784" width="970" height="104" rx="0 0 22 22" fill="#FFFFFF"/>
  <line x1="396" y1="842" x2="1366" y2="842" stroke="#EAECF0"/>
  <text x="418" y="819" class="muted">Soft shadows and clear borders separate the tree panel, stat cards, toolbar, and table.</text>
  <text x="418" y="864" class="muted">Draft rows use a warm highlight, completed rows stay neutral, and each card keeps a defined outline.</text>
</svg>
