<svg width="1440" height="1024" viewBox="0 0 1440 1024" fill="none" xmlns="http://www.w3.org/2000/svg">
  <defs>
    <linearGradient id="pageBg" x1="0" y1="0" x2="1440" y2="1024" gradientUnits="userSpaceOnUse">
      <stop stop-color="#F7FBFF"/>
      <stop offset="1" stop-color="#EEF3F8"/>
    </linearGradient>
    <linearGradient id="heroBg" x1="144" y1="88" x2="1296" y2="308" gradientUnits="userSpaceOnUse">
      <stop stop-color="#FFFFFF"/>
      <stop offset="1" stop-color="#F4F8FC"/>
    </linearGradient>
    <linearGradient id="cardBg" x1="0" y1="0" x2="360" y2="320" gradientUnits="userSpaceOnUse">
      <stop stop-color="#FFFFFF"/>
      <stop offset="1" stop-color="#F9FBFD"/>
    </linearGradient>
    <filter id="shadowLg" x="0" y="0" width="1600" height="1200" filterUnits="userSpaceOnUse" color-interpolation-filters="sRGB">
      <feDropShadow dx="0" dy="18" stdDeviation="20" flood-color="#0F172A" flood-opacity="0.10"/>
    </filter>
    <filter id="shadowMd" x="0" y="0" width="1600" height="1200" filterUnits="userSpaceOnUse" color-interpolation-filters="sRGB">
      <feDropShadow dx="0" dy="10" stdDeviation="14" flood-color="#0F172A" flood-opacity="0.09"/>
    </filter>
    <style>
      .title { font: 700 34px "Segoe UI", Arial, sans-serif; fill: #182230; }
      .section { font: 700 14px "Segoe UI", Arial, sans-serif; fill: #667085; letter-spacing: 1.2px; text-transform: uppercase; }
      .body { font: 500 15px "Segoe UI", Arial, sans-serif; fill: #475467; }
      .muted { font: 500 13px "Segoe UI", Arial, sans-serif; fill: #667085; }
      .cardTitle { font: 700 18px "Segoe UI", Arial, sans-serif; fill: #182230; }
      .mono { font: 700 12px Consolas, monospace; fill: #344054; }
      .smallCaps { font: 700 11px "Segoe UI", Arial, sans-serif; fill: #667085; letter-spacing: 1px; text-transform: uppercase; }
      .metric { font: 700 30px "Segoe UI", Arial, sans-serif; fill: #101828; }
      .metricLabel { font: 600 11px "Segoe UI", Arial, sans-serif; fill: #667085; letter-spacing: 0.8px; text-transform: uppercase; }
      .pill { font: 700 11px "Segoe UI", Arial, sans-serif; }
      .cta { font: 700 13px "Segoe UI", Arial, sans-serif; fill: #0B6BCB; }
    </style>
  </defs>

  <rect width="1440" height="1024" fill="url(#pageBg)"/>

  <rect x="144" y="72" width="1152" height="880" rx="28" fill="rgba(255,255,255,0.18)" stroke="rgba(208,213,221,0.55)" stroke-dasharray="8 10"/>
  <text x="164" y="58" class="section">80vw content frame</text>

  <g filter="url(#shadowLg)">
    <rect x="144" y="88" width="1152" height="196" rx="28" fill="url(#heroBg)"/>
  </g>
  <rect x="144" y="88" width="1152" height="196" rx="28" fill="url(#heroBg)" stroke="#D0D5DD"/>
  <text x="188" y="148" class="section">Data Capture</text>
  <text x="188" y="198" class="title">Choose an assessment program</text>
  <text x="188" y="228" class="body">A wider 80vw layout gives the cards room to breathe and keeps the home page from feeling cramped.</text>
  <text x="188" y="252" class="body">The cards below use stronger boundaries, raised surfaces, and clearer stat groupings.</text>

  <g filter="url(#shadowMd)">
    <rect x="1030" y="130" width="218" height="108" rx="22" fill="#FFFFFF"/>
  </g>
  <rect x="1030" y="130" width="218" height="108" rx="22" fill="#FFFFFF" stroke="#D0D5DD"/>
  <text x="1060" y="165" class="smallCaps">Active programs</text>
  <text x="1060" y="210" class="metric">12</text>
  <text x="1120" y="210" class="muted">ready for capture</text>

  <g filter="url(#shadowMd)">
    <rect x="144" y="320" width="368" height="286" rx="26" fill="url(#cardBg)"/>
  </g>
  <rect x="144" y="320" width="368" height="286" rx="26" fill="url(#cardBg)" stroke="#D0D5DD"/>
  <circle cx="188" cy="372" r="24" fill="#EAF2FF"/>
  <text x="188" y="379" text-anchor="middle" class="cardTitle" fill="#0B6BCB">C</text>
  <rect x="406" y="352" width="78" height="28" rx="14" fill="#DCFCE7"/>
  <text x="445" y="370" text-anchor="middle" class="pill" fill="#166534">ACTIVE</text>
  <text x="224" y="366" class="cardTitle">Child Health Follow-Up</text>
  <rect x="224" y="384" width="90" height="24" rx="12" fill="#EEF2F6"/>
  <text x="269" y="400" text-anchor="middle" class="mono">CHF-001</text>
  <text x="176" y="444" class="smallCaps">Program ID</text>
  <rect x="176" y="456" width="304" height="48" rx="14" fill="#F8FAFC" stroke="#D0D5DD"/>
  <text x="198" y="485" class="mono">hfatChildHealthProgram</text>
  <line x1="176" y1="530" x2="480" y2="530" stroke="#EAECF0"/>
  <text x="176" y="560" class="smallCaps">Completed</text>
  <text x="176" y="598" class="metric" fill="#166534">42</text>
  <line x1="328" y1="548" x2="328" y2="598" stroke="#D0D5DD"/>
  <text x="356" y="560" class="smallCaps">In progress</text>
  <text x="356" y="598" class="metric" fill="#B54708">7</text>
  <rect x="176" y="618" width="304" height="44" rx="14" fill="#EFF8FF" stroke="#B2DDFF"/>
  <text x="328" y="645" text-anchor="middle" class="cta">Open assessment</text>

  <g filter="url(#shadowMd)">
    <rect x="536" y="320" width="368" height="286" rx="26" fill="url(#cardBg)"/>
  </g>
  <rect x="536" y="320" width="368" height="286" rx="26" fill="url(#cardBg)" stroke="#D0D5DD"/>
  <circle cx="580" cy="372" r="24" fill="#FFF1E8"/>
  <text x="580" y="379" text-anchor="middle" class="cardTitle" fill="#C2410C">M</text>
  <rect x="798" y="352" width="78" height="28" rx="14" fill="#DCFCE7"/>
  <text x="837" y="370" text-anchor="middle" class="pill" fill="#166534">ACTIVE</text>
  <text x="616" y="366" class="cardTitle">Maternal Risk Screening</text>
  <rect x="616" y="384" width="90" height="24" rx="12" fill="#EEF2F6"/>
  <text x="661" y="400" text-anchor="middle" class="mono">MRS-008</text>
  <text x="568" y="444" class="smallCaps">Program ID</text>
  <rect x="568" y="456" width="304" height="48" rx="14" fill="#F8FAFC" stroke="#D0D5DD"/>
  <text x="590" y="485" class="mono">maternalRiskAssessment</text>
  <line x1="568" y1="530" x2="872" y2="530" stroke="#EAECF0"/>
  <text x="568" y="560" class="smallCaps">Completed</text>
  <text x="568" y="598" class="metric" fill="#166534">18</text>
  <line x1="720" y1="548" x2="720" y2="598" stroke="#D0D5DD"/>
  <text x="748" y="560" class="smallCaps">In progress</text>
  <text x="748" y="598" class="metric" fill="#B54708">3</text>
  <rect x="568" y="618" width="304" height="44" rx="14" fill="#EFF8FF" stroke="#B2DDFF"/>
  <text x="720" y="645" text-anchor="middle" class="cta">Open assessment</text>

  <g filter="url(#shadowMd)">
    <rect x="928" y="320" width="368" height="286" rx="26" fill="url(#cardBg)"/>
  </g>
  <rect x="928" y="320" width="368" height="286" rx="26" fill="url(#cardBg)" stroke="#D0D5DD"/>
  <circle cx="972" cy="372" r="24" fill="#ECFDF3"/>
  <text x="972" y="379" text-anchor="middle" class="cardTitle" fill="#15803D">N</text>
  <rect x="1190" y="352" width="78" height="28" rx="14" fill="#DCFCE7"/>
  <text x="1229" y="370" text-anchor="middle" class="pill" fill="#166534">ACTIVE</text>
  <text x="1008" y="366" class="cardTitle">Nutrition Surveillance</text>
  <rect x="1008" y="384" width="90" height="24" rx="12" fill="#EEF2F6"/>
  <text x="1053" y="400" text-anchor="middle" class="mono">NS-014</text>
  <text x="960" y="444" class="smallCaps">Program ID</text>
  <rect x="960" y="456" width="304" height="48" rx="14" fill="#F8FAFC" stroke="#D0D5DD"/>
  <text x="982" y="485" class="mono">nutritionSurveillance2026</text>
  <line x1="960" y1="530" x2="1264" y2="530" stroke="#EAECF0"/>
  <text x="960" y="560" class="smallCaps">Completed</text>
  <text x="960" y="598" class="metric" fill="#166534">63</text>
  <line x1="1112" y1="548" x2="1112" y2="598" stroke="#D0D5DD"/>
  <text x="1140" y="560" class="smallCaps">In progress</text>
  <text x="1140" y="598" class="metric" fill="#B54708">11</text>
  <rect x="960" y="618" width="304" height="44" rx="14" fill="#EFF8FF" stroke="#B2DDFF"/>
  <text x="1112" y="645" text-anchor="middle" class="cta">Open assessment</text>

  <g filter="url(#shadowMd)">
    <rect x="144" y="638" width="368" height="286" rx="26" fill="url(#cardBg)"/>
  </g>
  <rect x="144" y="638" width="368" height="286" rx="26" fill="url(#cardBg)" stroke="#D0D5DD"/>
  <text x="176" y="690" class="smallCaps">Updated card direction</text>
  <text x="176" y="726" class="body">Cards are taller, easier to scan, and use dedicated zones for identity, stats, and action.</text>
  <text x="176" y="754" class="body">The 80vw frame allows a stable three-column layout on desktop without squeezing content.</text>
  <rect x="176" y="790" width="304" height="92" rx="18" fill="#F8FAFC" stroke="#D0D5DD"/>
  <text x="198" y="822" class="smallCaps">Visual treatment</text>
  <text x="198" y="850" class="muted">Stronger shadows, larger radius, softer panels, and clearer button areas.</text>
</svg>
